<svg id="Layer_1" data-name="Layer 1" xmlns="http://www.w3.org/2000/svg" xmlns:xlink="http://www.w3.org/1999/xlink" viewBox="0 0 576.72 786.44"><defs><style>.cls-1{fill:#231f20;}.cls-2,.cls-3,.cls-4,.cls-5,.cls-6,.cls-7,.cls-8,.cls-9{fill:none;stroke:#231f20;stroke-miterlimit:10;}.cls-3{stroke-dasharray:4.05 4.05;}.cls-4{stroke-dasharray:3.93 3.93;}.cls-5{stroke-dasharray:4.19 4.19;}.cls-6{stroke-dasharray:3.98 3.98;}.cls-7{stroke-dasharray:4.02 4.02;}.cls-8{stroke-dasharray:3.97 3.97;}.cls-9{stroke-dasharray:4.01 4.01;}</style></defs><title>MixCD-Views</title><image width="884" height="1434" transform="scale(0.19)" xlink:href="Desktop/Mixcd_Guide/Front.png"/><image width="884" height="1434" transform="translate(207.02 0.89) scale(0.19)" xlink:href="Desktop/Mixcd_Guide/Signup.png"/><image width="884" height="1434" transform="translate(1.55 257.73) scale(0.19)" xlink:href="Desktop/Mixcd_Guide/Mix.png"/><image width="884" height="1434" transform="translate(208.42 258.04) scale(0.19)" xlink:href="Desktop/Mixcd_Guide/CD.png"/><image width="884" height="1434" transform="translate(411.56 258.04) scale(0.19)" xlink:href="Desktop/Mixcd_Guide/Song.png"/><image width="884" height="1434" transform="translate(1.97 516.82) scale(0.19)" xlink:href="Desktop/Mixcd_Guide/Drawer(Mix).png"/><image width="884" height="1434" transform="translate(208.32 514.36) scale(0.19)" xlink:href="Desktop/Mixcd_Guide/Shared.png"/><image width="884" height="1434" transform="translate(409.54 514.8) scale(0.19)" xlink:href="Desktop/Mixcd_Guide/Service.png"/><path class="cls-1" d="M75.16,17.72l.83-.06h2.18v.81h-3Zm.79-1c0-1.18.54-1.94,1.71-1.94a2.56,2.56,0,0,1,1,.2l-.2.76a1.7,1.7,0,0,0-.67-.15c-.55,0-.82.38-.82,1.14v6.74H76Z" transform="translate(-15 -13)"/><path class="cls-1" d="M79.29,17.66h.81l.09,1.06h0a2,2,0,0,1,1.66-1.2,1.3,1.3,0,0,1,.62.12l-.18.86a1.79,1.79,0,0,0-.57-.09c-.49,0-1.08.35-1.47,1.34v3.74h-1Z" transform="translate(-15 -13)"/><path class="cls-1" d="M82.9,20.59a2.72,2.72,0,1,1,5.4,0,2.72,2.72,0,1,1-5.4,0Zm4.38,0c0-1.34-.68-2.25-1.68-2.25s-1.68.91-1.68,2.25.68,2.23,1.68,2.23S87.28,21.92,87.28,20.59Z" transform="translate(-15 -13)"/><path class="cls-1" d="M89.84,17.66h.81l.08.84h0a2.78,2.78,0,0,1,2-1c1.23,0,1.78.79,1.78,2.28v3.69h-1V19.93c0-1.09-.33-1.55-1.1-1.55a2.22,2.22,0,0,0-1.6.89v4.22h-1Z" transform="translate(-15 -13)"/><path class="cls-1" d="M96.57,21.69V18.47h-.86v-.75l.91-.06L96.74,16h.82v1.63h1.58v.81H97.56v3.24c0,.71.23,1.12.9,1.12a2.05,2.05,0,0,0,.66-.15l.2.74a3.58,3.58,0,0,1-1.09.22C97,23.64,96.57,22.85,96.57,21.69Z" transform="translate(-15 -13)"/><path class="cls-1" d="M100.46,17.66h.81l.08.68h0a3,3,0,0,1,1.86-.82c1.5,0,2.31,1.17,2.31,3,0,2-1.2,3.15-2.53,3.15a2.63,2.63,0,0,1-1.61-.68l0,1v2h-1Zm4.08,2.84c0-1.29-.44-2.15-1.54-2.15a2.42,2.42,0,0,0-1.56.79V22.2a2.32,2.32,0,0,0,1.42.61C103.83,22.81,104.54,21.94,104.54,20.5Z" transform="translate(-15 -13)"/><path class="cls-1" d="M106.59,22c0-1.27,1.09-1.91,3.58-2.18,0-.75-.25-1.47-1.21-1.47a3.15,3.15,0,0,0-1.73.63l-.39-.68a4.29,4.29,0,0,1,2.29-.76c1.42,0,2,.94,2,2.4v3.57h-.81l-.08-.69h0a3.08,3.08,0,0,1-1.92.84A1.59,1.59,0,0,1,106.59,22Zm3.58.09V20.45c-2,.24-2.62.71-2.62,1.46s.45.93,1,.93A2.4,2.4,0,0,0,110.17,22.07Z" transform="translate(-15 -13)"/><path class="cls-1" d="M112.55,24.61a1.64,1.64,0,0,1,.86-1.32v0a1.08,1.08,0,0,1-.52-1,1.4,1.4,0,0,1,.64-1.08v-.05a2,2,0,0,1-.76-1.56A2.07,2.07,0,0,1,115,17.52a2.37,2.37,0,0,1,.82.14h2v.76h-1.2a1.67,1.67,0,0,1,.48,1.2,2,2,0,0,1-2.14,2,2.24,2.24,0,0,1-.87-.19.83.83,0,0,0-.37.68c0,.37.24.64,1,.64h1.14c1.35,0,2,.42,2,1.39s-1.14,2-2.94,2C113.54,26.18,112.55,25.62,112.55,24.61Zm4.4-.3c0-.54-.41-.73-1.18-.73h-1a3.45,3.45,0,0,1-.76-.08,1.19,1.19,0,0,0-.59,1c0,.63.63,1,1.69,1S117,24.92,117,24.31Zm-.75-4.71a1.25,1.25,0,1,0-2.48,0,1.25,1.25,0,1,0,2.48,0Z" transform="translate(-15 -13)"/><path class="cls-1" d="M118.44,20.59a2.81,2.81,0,0,1,2.62-3.07c1.49,0,2.33,1.07,2.33,2.73a2.9,2.9,0,0,1,0,.56h-3.92a1.94,1.94,0,0,0,1.94,2,2.51,2.51,0,0,0,1.45-.47l.35.65a3.38,3.38,0,0,1-1.93.61A2.79,2.79,0,0,1,118.44,20.59Zm4.08-.48c0-1.17-.53-1.81-1.44-1.81a1.79,1.79,0,0,0-1.67,1.81Z" transform="translate(-15 -13)"/><path class="cls-1" d="M278.47,22.83l.49-.65a2.65,2.65,0,0,0,1.72.69c.76,0,1.14-.41,1.14-.91s-.68-.86-1.33-1.1c-.82-.3-1.74-.7-1.74-1.69s.75-1.65,2-1.65a3,3,0,0,1,1.82.65l-.48.64a2.16,2.16,0,0,0-1.33-.52c-.73,0-1.07.39-1.07.83s.63.77,1.3,1c.84.32,1.77.66,1.77,1.77,0,1-.75,1.74-2.12,1.74A3.51,3.51,0,0,1,278.47,22.83Z" transform="translate(-15 -13)"/><path class="cls-1" d="M284,15.83a.69.69,0,1,1,.69.63A.64.64,0,0,1,284,15.83Zm.19,1.83h1v5.83h-1Z" transform="translate(-15 -13)"/><path class="cls-1" d="M286.65,24.61a1.64,1.64,0,0,1,.86-1.32v0a1.08,1.08,0,0,1-.52-1,1.4,1.4,0,0,1,.64-1.08v-.05a2,2,0,0,1-.76-1.56,2.07,2.07,0,0,1,2.19-2.08,2.48,2.48,0,0,1,.83.14h2v.76h-1.2a1.67,1.67,0,0,1,.48,1.2,2,2,0,0,1-2.14,2,2.08,2.08,0,0,1-.87-.2.86.86,0,0,0-.37.69c0,.37.24.64,1,.64H290c1.35,0,2,.42,2,1.39s-1.15,2-2.95,2C287.64,26.18,286.65,25.62,286.65,24.61Zm4.4-.3c0-.54-.41-.73-1.18-.73h-1a3.51,3.51,0,0,1-.76-.08,1.19,1.19,0,0,0-.59,1c0,.63.63,1,1.69,1S291.05,24.92,291.05,24.31Zm-.75-4.71a1.25,1.25,0,1,0-2.48,0,1.25,1.25,0,1,0,2.48,0Z" transform="translate(-15 -13)"/><path class="cls-1" d="M293.15,17.66H294l.08.84h0a2.78,2.78,0,0,1,1.95-1c1.23,0,1.78.79,1.78,2.28v3.69h-1V19.93c0-1.09-.32-1.55-1.09-1.55a2.22,2.22,0,0,0-1.6.89v4.22h-1Z" transform="translate(-15 -13)"/><path class="cls-1" d="M299.63,21.36v-3.7h1v3.57c0,1.08.33,1.55,1.1,1.55.59,0,1-.3,1.56-1V17.66h1v5.83h-.81l-.08-.91h0a2.46,2.46,0,0,1-1.92,1.06C300.18,23.64,299.63,22.84,299.63,21.36Z" transform="translate(-15 -13)"/><path class="cls-1" d="M306.24,17.66h.81l.08.68h0a3.06,3.06,0,0,1,1.86-.82c1.5,0,2.31,1.17,2.31,3,0,2-1.2,3.15-2.53,3.15A2.63,2.63,0,0,1,307.2,23l0,1v2h-1Zm4.08,2.84c0-1.29-.44-2.15-1.54-2.15a2.42,2.42,0,0,0-1.56.79V22.2a2.32,2.32,0,0,0,1.42.61C309.61,22.81,310.32,21.94,310.32,20.5Z" transform="translate(-15 -13)"/><path class="cls-1" d="M312.9,17.66h.81l.08.68h0a3.06,3.06,0,0,1,1.86-.82c1.5,0,2.31,1.17,2.31,3,0,2-1.2,3.15-2.53,3.15a2.63,2.63,0,0,1-1.61-.68l0,1v2h-1ZM317,20.5c0-1.29-.44-2.15-1.54-2.15a2.42,2.42,0,0,0-1.56.79V22.2a2.32,2.32,0,0,0,1.42.61C316.27,22.81,317,21.94,317,20.5Z" transform="translate(-15 -13)"/><path class="cls-1" d="M319,22c0-1.27,1.09-1.91,3.58-2.18,0-.75-.25-1.47-1.2-1.47a3.15,3.15,0,0,0-1.74.63l-.39-.68a4.29,4.29,0,0,1,2.29-.76c1.42,0,2,.94,2,2.4v3.57h-.81l-.08-.69h0a3.08,3.08,0,0,1-1.92.84A1.59,1.59,0,0,1,319,22Zm3.58.09V20.45c-1.95.24-2.62.71-2.62,1.46s.45.93,1,.93A2.4,2.4,0,0,0,322.61,22.07Z" transform="translate(-15 -13)"/><path class="cls-1" d="M325,24.61a1.63,1.63,0,0,1,.85-1.32v0a1.08,1.08,0,0,1-.52-1,1.4,1.4,0,0,1,.64-1.08v-.05a2,2,0,0,1-.76-1.56,2.07,2.07,0,0,1,2.19-2.08,2.48,2.48,0,0,1,.83.14h2v.76h-1.2a1.67,1.67,0,0,1,.48,1.2,2,2,0,0,1-2.14,2,2.08,2.08,0,0,1-.87-.2.86.86,0,0,0-.37.69c0,.37.24.64,1,.64h1.14c1.35,0,2,.42,2,1.39s-1.15,2-2.95,2C326,26.18,325,25.62,325,24.61Zm4.39-.3c0-.54-.41-.73-1.18-.73h-1a3.51,3.51,0,0,1-.76-.08,1.19,1.19,0,0,0-.59,1c0,.63.63,1,1.69,1S329.39,24.92,329.39,24.31Zm-.75-4.71a1.25,1.25,0,1,0-2.48,0,1.25,1.25,0,1,0,2.48,0Z" transform="translate(-15 -13)"/><path class="cls-1" d="M330.88,20.58a2.81,2.81,0,0,1,2.62-3.06c1.49,0,2.33,1.07,2.33,2.73a4.18,4.18,0,0,1,0,.56h-3.93a1.94,1.94,0,0,0,1.94,2,2.53,2.53,0,0,0,1.45-.47l.35.65a3.38,3.38,0,0,1-1.93.61A2.79,2.79,0,0,1,330.88,20.58Zm4.08-.47c0-1.17-.53-1.81-1.44-1.81a1.79,1.79,0,0,0-1.67,1.81Z" transform="translate(-15 -13)"/><path class="cls-1" d="M79.22,274.76H80l.08.85h0a2.56,2.56,0,0,1,1.82-1,1.52,1.52,0,0,1,1.6,1.11,2.76,2.76,0,0,1,1.93-1.11c1.2,0,1.77.79,1.77,2.28v3.69h-1V277c0-1.08-.34-1.55-1.08-1.55a2.15,2.15,0,0,0-1.46.9v4.22h-1V277c0-1.08-.34-1.55-1.08-1.55a2.17,2.17,0,0,0-1.46.9v4.22h-1Z" transform="translate(-15 -13)"/><path class="cls-1" d="M89,272.92a.68.68,0,0,1,1.36,0,.68.68,0,0,1-1.36,0Zm.18,1.84h1v5.83h-1Z" transform="translate(-15 -13)"/><path class="cls-1" d="M93.21,277.55l-1.76-2.79h1.06L93.3,276c.17.32.37.65.57,1h0l.53-1,.71-1.28h1l-1.76,2.89,1.9,2.94H95.25l-.86-1.35c-.2-.36-.41-.72-.63-1.05h-.05c-.2.33-.39.69-.59,1.05l-.79,1.35h-1Z" transform="translate(-15 -13)"/><path class="cls-1" d="M97.47,274.76h.82l.08.67h0a3.13,3.13,0,0,1,1.86-.81c1.51,0,2.31,1.17,2.31,3,0,2-1.19,3.14-2.52,3.14a2.64,2.64,0,0,1-1.62-.67l0,1v2h-1Zm4.08,2.84c0-1.29-.44-2.15-1.53-2.15a2.38,2.38,0,0,0-1.56.79v3.06a2.28,2.28,0,0,0,1.42.6C100.84,279.9,101.55,279,101.55,277.6Z" transform="translate(-15 -13)"/><path class="cls-1" d="M103.6,279.08c0-1.27,1.1-1.91,3.58-2.18,0-.75-.25-1.47-1.2-1.47a3.25,3.25,0,0,0-1.74.62l-.39-.67a4.32,4.32,0,0,1,2.29-.76c1.43,0,2,.94,2,2.39v3.58h-.82l-.08-.7h0a3.08,3.08,0,0,1-1.93.84A1.58,1.58,0,0,1,103.6,279.08Zm3.58.09v-1.62c-2,.23-2.61.71-2.61,1.46s.45.93,1,.93A2.38,2.38,0,0,0,107.18,279.17Z" transform="translate(-15 -13)"/><path class="cls-1" d="M109.57,281.71a1.65,1.65,0,0,1,.85-1.32v-.05a1.07,1.07,0,0,1-.52-.95,1.38,1.38,0,0,1,.64-1.08v-.05a2,2,0,0,1-.75-1.57,2.07,2.07,0,0,1,2.19-2.07,2.37,2.37,0,0,1,.82.14h2v.76h-1.19a1.71,1.71,0,0,1,.47,1.2,2,2,0,0,1-2.13,2,2,2,0,0,1-.87-.2.86.86,0,0,0-.37.69c0,.37.24.63,1,.63h1.13c1.36,0,2,.43,2,1.4s-1.15,2-3,2C110.55,283.27,109.57,282.71,109.57,281.71Zm4.39-.31c0-.53-.41-.72-1.17-.72h-1a3,3,0,0,1-.76-.09,1.24,1.24,0,0,0-.59,1c0,.63.63,1,1.69,1S114,282,114,281.4Zm-.74-4.71a1.25,1.25,0,1,0-2.48,0,1.25,1.25,0,1,0,2.48,0Z" transform="translate(-15 -13)"/><path class="cls-1" d="M115.46,277.68a2.81,2.81,0,0,1,2.62-3.06c1.49,0,2.32,1.06,2.32,2.73a3,3,0,0,1,0,.56h-3.93a1.94,1.94,0,0,0,1.94,2,2.51,2.51,0,0,0,1.45-.47l.35.65a3.45,3.45,0,0,1-1.92.6A2.78,2.78,0,0,1,115.46,277.68Zm4.07-.47c0-1.17-.52-1.81-1.43-1.81a1.8,1.8,0,0,0-1.68,1.81Z" transform="translate(-15 -13)"/><path class="cls-1" d="M286.75,277.68a2.83,2.83,0,0,1,2.81-3.06,2.44,2.44,0,0,1,1.7.68l-.5.65a1.72,1.72,0,0,0-1.16-.51c-1.05,0-1.83.91-1.83,2.24s.73,2.23,1.8,2.23a2.09,2.09,0,0,0,1.37-.58l.43.66a2.8,2.8,0,0,1-1.88.74A2.74,2.74,0,0,1,286.75,277.68Z" transform="translate(-15 -13)"/><path class="cls-1" d="M292,277.68c0-1.89,1.19-3.06,2.52-3.06a2.41,2.41,0,0,1,1.64.67l0-1v-2.24h1v8.54h-.81l-.09-.69h0a2.54,2.54,0,0,1-1.77.83C292.93,280.73,292,279.63,292,277.68Zm4.11,1.43v-3.06a2,2,0,0,0-1.42-.6c-.93,0-1.67.9-1.67,2.22s.58,2.23,1.6,2.23A2,2,0,0,0,296.1,279.11Z" transform="translate(-15 -13)"/><path class="cls-1" d="M299.07,274.76h.81l.08.67h0a3.08,3.08,0,0,1,1.85-.81c1.51,0,2.32,1.17,2.32,3,0,2-1.2,3.14-2.53,3.14a2.62,2.62,0,0,1-1.61-.67l0,1v2h-1Zm4.08,2.84c0-1.29-.44-2.15-1.54-2.15a2.42,2.42,0,0,0-1.56.79v3.06a2.3,2.3,0,0,0,1.42.6C302.44,279.9,303.15,279,303.15,277.6Z" transform="translate(-15 -13)"/><path class="cls-1" d="M305.2,279.08c0-1.27,1.09-1.91,3.58-2.18,0-.75-.25-1.47-1.21-1.47a3.28,3.28,0,0,0-1.74.62l-.38-.67a4.26,4.26,0,0,1,2.29-.76c1.42,0,2,.94,2,2.39v3.58H309l-.08-.7h0a3,3,0,0,1-1.93.84A1.58,1.58,0,0,1,305.2,279.08Zm3.58.09v-1.62c-2,.23-2.62.71-2.62,1.46s.45.93,1,.93A2.4,2.4,0,0,0,308.78,279.17Z" transform="translate(-15 -13)"/><path class="cls-1" d="M311.16,281.71a1.64,1.64,0,0,1,.86-1.32v-.05a1.05,1.05,0,0,1-.52-.95,1.38,1.38,0,0,1,.64-1.08v-.05a2,2,0,0,1-.76-1.57,2.07,2.07,0,0,1,2.19-2.07,2.37,2.37,0,0,1,.82.14h2v.76h-1.2a1.67,1.67,0,0,1,.48,1.2,2,2,0,0,1-2.14,2,2.08,2.08,0,0,1-.87-.2.86.86,0,0,0-.37.69c0,.37.24.63,1,.63h1.14c1.35,0,2,.43,2,1.4s-1.14,2-2.94,2C312.15,283.27,311.16,282.71,311.16,281.71Zm4.4-.31c0-.53-.41-.72-1.18-.72h-1a3,3,0,0,1-.76-.09,1.23,1.23,0,0,0-.6,1c0,.63.64,1,1.69,1S315.56,282,315.56,281.4Zm-.75-4.71a1.25,1.25,0,1,0-2.48,0,1.25,1.25,0,1,0,2.48,0Z" transform="translate(-15 -13)"/><path class="cls-1" d="M317.05,277.68a2.81,2.81,0,0,1,2.62-3.06c1.49,0,2.33,1.06,2.33,2.73a2.9,2.9,0,0,1-.05.56H318a1.93,1.93,0,0,0,1.93,2,2.57,2.57,0,0,0,1.46-.47l.35.65a3.45,3.45,0,0,1-1.93.6A2.78,2.78,0,0,1,317.05,277.68Zm4.08-.47c0-1.17-.53-1.81-1.44-1.81a1.79,1.79,0,0,0-1.67,1.81Z" transform="translate(-15 -13)"/><path class="cls-1" d="M485.22,279.92l.49-.64a2.65,2.65,0,0,0,1.72.69c.76,0,1.14-.41,1.14-.91s-.69-.86-1.33-1.1c-.82-.3-1.74-.71-1.74-1.69s.75-1.65,2-1.65a2.92,2.92,0,0,1,1.81.65l-.47.63a2.23,2.23,0,0,0-1.33-.52c-.73,0-1.07.4-1.07.84s.63.77,1.29,1c.84.32,1.78.66,1.78,1.77,0,.95-.75,1.73-2.13,1.73A3.48,3.48,0,0,1,485.22,279.92Z" transform="translate(-15 -13)"/><path class="cls-1" d="M490.46,277.68a2.72,2.72,0,1,1,2.7,3.05A2.78,2.78,0,0,1,490.46,277.68Zm4.38,0c0-1.33-.68-2.24-1.68-2.24s-1.68.91-1.68,2.24.68,2.23,1.68,2.23S494.84,279,494.84,277.68Z" transform="translate(-15 -13)"/><path class="cls-1" d="M497.4,274.76h.81l.08.84h0a2.74,2.74,0,0,1,1.95-1c1.23,0,1.78.79,1.78,2.28v3.69h-1V277c0-1.08-.33-1.55-1.1-1.55-.6,0-1,.31-1.6.9v4.22h-1Z" transform="translate(-15 -13)"/><path class="cls-1" d="M503.52,281.71a1.65,1.65,0,0,1,.85-1.32v-.05a1.07,1.07,0,0,1-.52-.95,1.38,1.38,0,0,1,.64-1.08v-.05a2,2,0,0,1-.75-1.57,2.07,2.07,0,0,1,2.19-2.07,2.37,2.37,0,0,1,.82.14h2v.76h-1.2a1.67,1.67,0,0,1,.48,1.2,2,2,0,0,1-2.13,2,2,2,0,0,1-.87-.2.86.86,0,0,0-.37.69c0,.37.23.63,1,.63h1.13c1.36,0,2,.43,2,1.4s-1.15,2-2.95,2C504.5,283.27,503.52,282.71,503.52,281.71Zm4.39-.31c0-.53-.41-.72-1.17-.72h-1a3,3,0,0,1-.76-.09,1.24,1.24,0,0,0-.59,1c0,.63.63,1,1.69,1S507.91,282,507.91,281.4Zm-.75-4.71a1.24,1.24,0,1,0-2.47,0,1.24,1.24,0,1,0,2.47,0Z" transform="translate(-15 -13)"/><path class="cls-1" d="M510,274.76h.81l.09.67h0a3.11,3.11,0,0,1,1.86-.81c1.5,0,2.31,1.17,2.31,3,0,2-1.19,3.14-2.53,3.14a2.62,2.62,0,0,1-1.61-.67l0,1v2h-1Zm4.08,2.84c0-1.29-.44-2.15-1.54-2.15a2.42,2.42,0,0,0-1.56.79v3.06a2.3,2.3,0,0,0,1.42.6C513.38,279.9,514.09,279,514.09,277.6Z" transform="translate(-15 -13)"/><path class="cls-1" d="M516.14,279.08c0-1.27,1.09-1.91,3.58-2.18,0-.75-.25-1.47-1.2-1.47a3.22,3.22,0,0,0-1.74.62l-.39-.67a4.32,4.32,0,0,1,2.29-.76c1.42,0,2,.94,2,2.39v3.58h-.82l-.08-.7h0a3,3,0,0,1-1.92.84A1.58,1.58,0,0,1,516.14,279.08Zm3.58.09v-1.62c-2,.23-2.61.71-2.61,1.46s.44.93,1,.93A2.38,2.38,0,0,0,519.72,279.17Z" transform="translate(-15 -13)"/><path class="cls-1" d="M522.11,281.71a1.63,1.63,0,0,1,.85-1.32v-.05a1.05,1.05,0,0,1-.52-.95,1.38,1.38,0,0,1,.64-1.08v-.05a2,2,0,0,1-.75-1.57,2.06,2.06,0,0,1,2.18-2.07,2.48,2.48,0,0,1,.83.14h2v.76h-1.2a1.67,1.67,0,0,1,.48,1.2,2,2,0,0,1-2.14,2,2.08,2.08,0,0,1-.87-.2.86.86,0,0,0-.37.69c0,.37.24.63,1,.63h1.14c1.35,0,2,.43,2,1.4s-1.15,2-3,2C523.09,283.27,522.11,282.71,522.11,281.71Zm4.39-.31c0-.53-.41-.72-1.18-.72h-1a3,3,0,0,1-.76-.09,1.22,1.22,0,0,0-.59,1c0,.63.63,1,1.69,1S526.5,282,526.5,281.4Zm-.75-4.71a1.25,1.25,0,1,0-2.48,0,1.25,1.25,0,1,0,2.48,0Z" transform="translate(-15 -13)"/><path class="cls-1" d="M528,277.68a2.8,2.8,0,0,1,2.62-3.06c1.48,0,2.32,1.06,2.32,2.73a4.18,4.18,0,0,1,0,.56H529a1.94,1.94,0,0,0,1.94,2,2.51,2.51,0,0,0,1.45-.47l.35.65a3.45,3.45,0,0,1-1.92.6A2.78,2.78,0,0,1,528,277.68Zm4.07-.47c0-1.17-.53-1.81-1.44-1.81a1.79,1.79,0,0,0-1.67,1.81Z" transform="translate(-15 -13)"/><path class="cls-1" d="M82.48,535.46c0-1.89,1.2-3.07,2.53-3.07a2.4,2.4,0,0,1,1.63.68l0-1v-2.25h1v8.55h-.81l-.08-.69h0a2.58,2.58,0,0,1-1.77.83C83.43,538.51,82.48,537.4,82.48,535.46Zm4.12,1.43v-3.06a2.08,2.08,0,0,0-1.42-.61c-.94,0-1.68.9-1.68,2.23s.58,2.23,1.6,2.23A2,2,0,0,0,86.6,536.89Z" transform="translate(-15 -13)"/><path class="cls-1" d="M89.56,532.54h.81l.09,1.06h0a2,2,0,0,1,1.66-1.21,1.43,1.43,0,0,1,.62.12l-.19.87a1.69,1.69,0,0,0-.56-.1c-.49,0-1.08.36-1.48,1.34v3.75h-1Z" transform="translate(-15 -13)"/><path class="cls-1" d="M93.07,536.85c0-1.27,1.1-1.9,3.58-2.17,0-.75-.25-1.47-1.2-1.47a3.28,3.28,0,0,0-1.74.62l-.38-.67a4.18,4.18,0,0,1,2.29-.77c1.42,0,2,1,2,2.4v3.58h-.81l-.09-.7h0a3.13,3.13,0,0,1-1.93.84A1.59,1.59,0,0,1,93.07,536.85Zm3.58.1v-1.62c-2,.23-2.61.71-2.61,1.45a.89.89,0,0,0,1,.94A2.42,2.42,0,0,0,96.65,537Z" transform="translate(-15 -13)"/><path class="cls-1" d="M98.79,532.54h1l.87,3.37c.13.55.23,1.07.35,1.62h0c.13-.55.26-1.08.4-1.62l.9-3.37h1l.91,3.37c.15.55.27,1.07.41,1.62h.05c.12-.55.23-1.07.36-1.62l.85-3.37h.94l-1.57,5.83h-1.2l-.84-3.14c-.14-.55-.25-1.08-.39-1.68h0c-.13.6-.25,1.15-.4,1.7l-.82,3.12h-1.15Z" transform="translate(-15 -13)"/><path class="cls-1" d="M107.62,535.46a2.81,2.81,0,0,1,2.62-3.07c1.48,0,2.32,1.07,2.32,2.74a3,3,0,0,1,0,.56h-3.93a2,2,0,0,0,1.94,2,2.58,2.58,0,0,0,1.45-.47l.35.65a3.45,3.45,0,0,1-1.92.6A2.78,2.78,0,0,1,107.62,535.46Zm4.07-.48c0-1.17-.52-1.8-1.43-1.8a1.8,1.8,0,0,0-1.68,1.8Z" transform="translate(-15 -13)"/><path class="cls-1" d="M114,532.54h.82l.08,1.06h0a2,2,0,0,1,1.66-1.21,1.43,1.43,0,0,1,.62.12l-.18.87a1.7,1.7,0,0,0-.57-.1c-.49,0-1.08.36-1.47,1.34v3.75h-1Z" transform="translate(-15 -13)"/><path class="cls-1" d="M278.23,537.7l.49-.65a2.6,2.6,0,0,0,1.72.69c.76,0,1.14-.41,1.14-.9s-.68-.87-1.33-1.11c-.82-.3-1.74-.7-1.74-1.68s.75-1.66,2-1.66a3,3,0,0,1,1.82.66l-.48.63a2.16,2.16,0,0,0-1.33-.52c-.73,0-1.07.39-1.07.84s.64.76,1.3,1c.84.32,1.77.66,1.77,1.77,0,.94-.75,1.73-2.12,1.73A3.51,3.51,0,0,1,278.23,537.7Z" transform="translate(-15 -13)"/><path class="cls-1" d="M283.91,529.82h1v2.34l0,1.2a2.75,2.75,0,0,1,1.93-1c1.23,0,1.78.8,1.78,2.28v3.7h-1V534.8c0-1.09-.33-1.55-1.1-1.55a2.2,2.2,0,0,0-1.6.9v4.22h-1Z" transform="translate(-15 -13)"/><path class="cls-1" d="M290.07,536.85c0-1.27,1.1-1.9,3.58-2.17,0-.75-.25-1.47-1.2-1.47a3.25,3.25,0,0,0-1.74.62l-.39-.67a4.24,4.24,0,0,1,2.29-.77c1.43,0,2,1,2,2.4v3.58h-.82l-.08-.7h0a3.13,3.13,0,0,1-1.93.84A1.58,1.58,0,0,1,290.07,536.85Zm3.58.1v-1.62c-1.95.23-2.61.71-2.61,1.45a.89.89,0,0,0,1,.94A2.42,2.42,0,0,0,293.65,537Z" transform="translate(-15 -13)"/><path class="cls-1" d="M296.48,532.54h.82l.08,1.06h0a2,2,0,0,1,1.66-1.21,1.43,1.43,0,0,1,.62.12l-.18.87a1.7,1.7,0,0,0-.57-.1c-.49,0-1.08.36-1.47,1.34v3.75h-1Z" transform="translate(-15 -13)"/><path class="cls-1" d="M300.09,535.46a2.81,2.81,0,0,1,2.62-3.07c1.49,0,2.33,1.07,2.33,2.74a2.9,2.9,0,0,1-.05.56h-3.92a1.94,1.94,0,0,0,1.93,2,2.64,2.64,0,0,0,1.46-.47l.35.65a3.45,3.45,0,0,1-1.93.6A2.78,2.78,0,0,1,300.09,535.46Zm4.08-.48c0-1.17-.53-1.8-1.44-1.8a1.79,1.79,0,0,0-1.67,1.8Z" transform="translate(-15 -13)"/><path class="cls-1" d="M306.06,535.46c0-1.89,1.19-3.07,2.52-3.07a2.4,2.4,0,0,1,1.64.68l0-1v-2.25h1v8.55h-.81l-.09-.69h0a2.58,2.58,0,0,1-1.77.83C307,538.51,306.06,537.4,306.06,535.46Zm4.12,1.43v-3.06a2.09,2.09,0,0,0-1.43-.61c-.93,0-1.67.9-1.67,2.23s.58,2.23,1.6,2.23A2,2,0,0,0,310.18,536.89Z" transform="translate(-15 -13)"/><path class="cls-1" d="M313.14,532.54H314l.09.67h0a3,3,0,0,1,1.86-.82c1.5,0,2.31,1.17,2.31,3,0,2-1.2,3.15-2.53,3.15a2.62,2.62,0,0,1-1.61-.67l0,1v2h-1Zm4.08,2.83c0-1.28-.44-2.15-1.54-2.15a2.44,2.44,0,0,0-1.56.8v3.06a2.3,2.3,0,0,0,1.42.6C316.51,537.68,317.22,536.81,317.22,535.37Z" transform="translate(-15 -13)"/><path class="cls-1" d="M319.27,536.85c0-1.27,1.09-1.9,3.58-2.17,0-.75-.25-1.47-1.21-1.47a3.22,3.22,0,0,0-1.73.62l-.39-.67a4.24,4.24,0,0,1,2.29-.77c1.42,0,2,1,2,2.4v3.58H323l-.08-.7h0a3.08,3.08,0,0,1-1.92.84A1.58,1.58,0,0,1,319.27,536.85Zm3.58.1v-1.62c-2,.23-2.62.71-2.62,1.45s.45.94,1,.94A2.44,2.44,0,0,0,322.85,537Z" transform="translate(-15 -13)"/><path class="cls-1" d="M325.23,539.49a1.64,1.64,0,0,1,.86-1.32v0a1.07,1.07,0,0,1-.52-1,1.42,1.42,0,0,1,.64-1.09v0a2,2,0,0,1-.76-1.57,2.08,2.08,0,0,1,2.19-2.08,2.35,2.35,0,0,1,.82.15h2v.76h-1.2a1.65,1.65,0,0,1,.48,1.2,2,2,0,0,1-2.14,2,2.08,2.08,0,0,1-.87-.2.86.86,0,0,0-.37.69c0,.37.24.63,1,.63h1.14c1.35,0,2,.43,2,1.39s-1.14,2-2.94,2C326.22,541.05,325.23,540.49,325.23,539.49Zm4.4-.31c0-.54-.41-.72-1.18-.72h-1a3.56,3.56,0,0,1-.76-.09,1.2,1.2,0,0,0-.59,1c0,.62.63,1,1.69,1S329.63,539.79,329.63,539.18Zm-.75-4.71a1.25,1.25,0,1,0-2.48,0,1.25,1.25,0,1,0,2.48,0Z" transform="translate(-15 -13)"/><path class="cls-1" d="M331.12,535.46a2.81,2.81,0,0,1,2.63-3.07c1.48,0,2.32,1.07,2.32,2.74a4.18,4.18,0,0,1,0,.56H332.1a1.94,1.94,0,0,0,1.94,2,2.58,2.58,0,0,0,1.45-.47l.35.65a3.45,3.45,0,0,1-1.92.6A2.79,2.79,0,0,1,331.12,535.46Zm4.08-.48c0-1.17-.53-1.8-1.44-1.8a1.79,1.79,0,0,0-1.67,1.8Z" transform="translate(-15 -13)"/><path class="cls-1" d="M479.7,537.7l.49-.65a2.62,2.62,0,0,0,1.72.69c.77,0,1.15-.41,1.15-.9s-.69-.87-1.34-1.11c-.81-.3-1.73-.7-1.73-1.68s.74-1.66,2-1.66a3,3,0,0,1,1.81.66l-.47.63a2.19,2.19,0,0,0-1.33-.52c-.74,0-1.08.39-1.08.84s.64.76,1.3,1c.84.32,1.78.66,1.78,1.77,0,.94-.76,1.73-2.13,1.73A3.51,3.51,0,0,1,479.7,537.7Z" transform="translate(-15 -13)"/><path class="cls-1" d="M485,535.46a2.81,2.81,0,0,1,2.62-3.07c1.48,0,2.32,1.07,2.32,2.74a3,3,0,0,1,0,.56h-3.93a2,2,0,0,0,1.94,2,2.58,2.58,0,0,0,1.45-.47l.35.65a3.45,3.45,0,0,1-1.92.6A2.78,2.78,0,0,1,485,535.46ZM489,535c0-1.17-.52-1.8-1.44-1.8a1.79,1.79,0,0,0-1.67,1.8Z" transform="translate(-15 -13)"/><path class="cls-1" d="M491.33,532.54h.82l.08,1.06h0a2,2,0,0,1,1.66-1.21,1.43,1.43,0,0,1,.62.12l-.18.87a1.75,1.75,0,0,0-.57-.1c-.49,0-1.08.36-1.47,1.34v3.75h-1Z" transform="translate(-15 -13)"/><path class="cls-1" d="M495,532.54h1l1.1,3.31c.18.57.37,1.16.54,1.72h.05c.17-.56.36-1.15.54-1.72l1.1-3.31h1l-2.07,5.83h-1.14Z" transform="translate(-15 -13)"/><path class="cls-1" d="M501.22,530.7a.68.68,0,0,1,1.36,0,.68.68,0,0,1-1.36,0Zm.18,1.84h1v5.83h-1Z" transform="translate(-15 -13)"/><path class="cls-1" d="M503.92,535.46a2.83,2.83,0,0,1,2.8-3.07,2.45,2.45,0,0,1,1.71.69l-.51.65a1.68,1.68,0,0,0-1.16-.52c-1.05,0-1.82.91-1.82,2.25s.73,2.23,1.8,2.23a2.13,2.13,0,0,0,1.37-.58l.43.66a2.84,2.84,0,0,1-1.89.74A2.74,2.74,0,0,1,503.92,535.46Z" transform="translate(-15 -13)"/><path class="cls-1" d="M509.14,535.46a2.81,2.81,0,0,1,2.62-3.07c1.48,0,2.32,1.07,2.32,2.74a3,3,0,0,1,0,.56h-3.93a2,2,0,0,0,1.94,2,2.58,2.58,0,0,0,1.45-.47l.35.65a3.45,3.45,0,0,1-1.92.6A2.78,2.78,0,0,1,509.14,535.46Zm4.07-.48c0-1.17-.52-1.8-1.44-1.8a1.79,1.79,0,0,0-1.67,1.8Z" transform="translate(-15 -13)"/><path class="cls-1" d="M515.52,532.54h.82l.08.67h0a3.06,3.06,0,0,1,1.86-.82c1.51,0,2.31,1.17,2.31,3,0,2-1.19,3.15-2.52,3.15a2.64,2.64,0,0,1-1.62-.67l0,1v2h-1Zm4.08,2.83c0-1.28-.44-2.15-1.53-2.15a2.4,2.4,0,0,0-1.56.8v3.06a2.28,2.28,0,0,0,1.42.6C518.89,537.68,519.6,536.81,519.6,535.37Z" transform="translate(-15 -13)"/><path class="cls-1" d="M521.65,536.85c0-1.27,1.1-1.9,3.58-2.17,0-.75-.25-1.47-1.2-1.47a3.25,3.25,0,0,0-1.74.62l-.39-.67a4.24,4.24,0,0,1,2.29-.77c1.43,0,2,1,2,2.4v3.58h-.82l-.08-.7h0a3.13,3.13,0,0,1-1.93.84A1.58,1.58,0,0,1,521.65,536.85Zm3.58.1v-1.62c-2,.23-2.61.71-2.61,1.45a.89.89,0,0,0,1,.94A2.42,2.42,0,0,0,525.23,537Z" transform="translate(-15 -13)"/><path class="cls-1" d="M527.62,539.49a1.65,1.65,0,0,1,.85-1.32v0a1.09,1.09,0,0,1-.52-1,1.42,1.42,0,0,1,.64-1.09v0a2.06,2.06,0,0,1,1.44-3.65,2.35,2.35,0,0,1,.82.15h2v.76h-1.19a1.69,1.69,0,0,1,.47,1.2,2,2,0,0,1-2.13,2,2,2,0,0,1-.87-.2.86.86,0,0,0-.37.69c0,.37.24.63,1,.63h1.13c1.36,0,2,.43,2,1.39s-1.15,2-3,2C528.6,541.05,527.62,540.49,527.62,539.49Zm4.39-.31c0-.54-.41-.72-1.17-.72h-1a3.56,3.56,0,0,1-.76-.09,1.23,1.23,0,0,0-.59,1c0,.62.63,1,1.69,1S532,539.79,532,539.18Zm-.75-4.71a1.24,1.24,0,1,0-2.47,0,1.24,1.24,0,1,0,2.47,0Z" transform="translate(-15 -13)"/><path class="cls-1" d="M533.51,535.46a2.81,2.81,0,0,1,2.62-3.07c1.48,0,2.32,1.07,2.32,2.74a3,3,0,0,1,0,.56h-3.93a2,2,0,0,0,1.94,2,2.58,2.58,0,0,0,1.45-.47l.35.65a3.45,3.45,0,0,1-1.92.6A2.78,2.78,0,0,1,533.51,535.46Zm4.07-.48c0-1.17-.52-1.8-1.43-1.8a1.8,1.8,0,0,0-1.68,1.8Z" transform="translate(-15 -13)"/><line class="cls-2" x1="142.75" y1="41.86" x2="229.93" y2="41.86"/><line class="cls-2" x1="221.18" y1="35.31" x2="229.31" y2="41.74"/><line class="cls-2" x1="229.45" y1="41.99" x2="221.05" y2="48.06"/><line class="cls-2" x1="273.14" y1="114.43" x2="271.14" y2="114.43"/><line class="cls-3" x1="267.08" y1="114.42" x2="147.58" y2="114.31"/><line class="cls-2" x1="145.55" y1="114.31" x2="143.55" y2="114.31"/><line class="cls-2" x1="151.83" y1="120.98" x2="143.55" y2="114.31"/><line class="cls-2" x1="143.55" y1="114.31" x2="151.95" y2="108.23"/><line class="cls-2" x1="232.81" y1="298.94" x2="230.81" y2="298.93"/><line class="cls-4" x1="226.88" y1="298.93" x2="150.2" y2="298.82"/><line class="cls-2" x1="148.23" y1="298.82" x2="146.23" y2="298.81"/><line class="cls-2" x1="154.5" y1="305.49" x2="146.23" y2="298.81"/><line class="cls-2" x1="146.23" y1="298.81" x2="154.63" y2="292.74"/><line class="cls-2" x1="436.09" y1="298.7" x2="434.09" y2="298.7"/><line class="cls-5" x1="429.9" y1="298.69" x2="356.6" y2="298.58"/><line class="cls-2" x1="354.5" y1="298.58" x2="352.5" y2="298.58"/><line class="cls-2" x1="360.78" y1="305.25" x2="352.5" y2="298.58"/><line class="cls-2" x1="352.5" y1="298.58" x2="360.91" y2="292.5"/><line class="cls-2" x1="232.39" y1="555.45" x2="230.39" y2="555.45"/><line class="cls-6" x1="226.41" y1="555.45" x2="148.8" y2="555.34"/><line class="cls-2" x1="146.81" y1="555.33" x2="144.81" y2="555.33"/><line class="cls-2" x1="153.08" y1="562.01" x2="144.81" y2="555.33"/><line class="cls-2" x1="144.81" y1="555.33" x2="153.21" y2="549.26"/><line class="cls-2" x1="83.37" y1="107.22" x2="83.37" y2="258.62"/><line class="cls-2" x1="89.92" y1="249.87" x2="83.49" y2="258"/><line class="cls-2" x1="83.25" y1="258.14" x2="77.17" y2="249.74"/><line class="cls-2" x1="133.06" y1="488.68" x2="232.24" y2="488.68"/><line class="cls-2" x1="223.49" y1="482.13" x2="231.62" y2="488.56"/><line class="cls-2" x1="231.76" y1="488.81" x2="223.36" y2="494.88"/><line class="cls-2" x1="340.55" y1="488.86" x2="436.73" y2="488.86"/><line class="cls-2" x1="427.98" y1="482.31" x2="436.11" y2="488.74"/><line class="cls-2" x1="436.25" y1="488.98" x2="427.85" y2="495.06"/><line class="cls-2" x1="93.88" y1="612.1" x2="231.07" y2="612.1"/><line class="cls-2" x1="222.31" y1="605.55" x2="230.45" y2="611.98"/><line class="cls-2" x1="230.59" y1="612.23" x2="222.19" y2="618.3"/><line class="cls-2" x1="487.84" y1="433.62" x2="485.84" y2="433.62"/><line class="cls-7" x1="481.82" y1="433.61" x2="355.26" y2="433.5"/><line class="cls-2" x1="353.25" y1="433.5" x2="351.25" y2="433.5"/><line class="cls-2" x1="359.53" y1="440.17" x2="351.25" y2="433.5"/><line class="cls-2" x1="351.25" y1="433.5" x2="359.66" y2="427.42"/><line class="cls-2" x1="89.2" y1="598.84" x2="433.38" y2="598.84"/><line class="cls-2" x1="424.63" y1="592.29" x2="432.76" y2="598.72"/><line class="cls-2" x1="432.9" y1="598.96" x2="424.5" y2="605.04"/><line class="cls-2" x1="477.44" y1="694.78" x2="475.44" y2="694.78"/><line class="cls-8" x1="471.47" y1="694.78" x2="147.84" y2="694.66"/><line class="cls-2" x1="145.86" y1="694.66" x2="143.86" y2="694.66"/><line class="cls-2" x1="152.13" y1="701.34" x2="143.86" y2="694.66"/><line class="cls-2" x1="143.86" y1="694.66" x2="152.26" y2="688.59"/><line class="cls-2" x1="447.03" y1="556.52" x2="445.03" y2="556.51"/><line class="cls-9" x1="441.02" y1="556.51" x2="258.46" y2="556.4"/><line class="cls-2" x1="256.45" y1="556.39" x2="254.45" y2="556.39"/><line class="cls-2" x1="262.73" y1="563.07" x2="254.45" y2="556.39"/><line class="cls-2" x1="254.45" y1="556.39" x2="262.85" y2="550.32"/></svg>